# xmcd
#
# Track frame offsets:
#	150
#	12607
#	26612
#	44250
#	56625
#	72807
#	91757
#	103807
#	118137
#	133632
#	144407
#	163650
#	177775
#	196470
#
# Disc length: 2823 seconds
#
# Revision: 1
# Processed by: cddbd v1.4PL0 Copyright (c) Steve Scherf et al.
# Submitted via: audiograbber 1.81.02
#
DISCID=c30b050e
DTITLE=Cserháti Zsuzsa - Kicsi, gyere velem rózsát szedni
DYEAR=1997
DGENRE=
TTITLE0=Könnyû, mint az 1x1
TTITLE1=Kicsi, gyere velem rózsát szedni
TTITLE2=Száguldás, Porsche szerelem
TTITLE3=Merci, Cherie
TTITLE4=A boldogság és én
TTITLE5=Könnyû tavaszi szél
TTITLE6=Hold folyó - Moon River
TTITLE7=Látod szerelem, mit tettél
TTITLE8=Air
TTITLE9=Mindig az a perc
TTITLE10=Különös szilveszter
TTITLE11=Megfagyott föld
TTITLE12=Boldogság, gyere haza
TTITLE13=Édes kisfiam
EXTD=
EXTT0=
EXTT1=
EXTT2=
EXTT3=
EXTT4=
EXTT5=
EXTT6=
EXTT7=
EXTT8=
EXTT9=
EXTT10=
EXTT11=
EXTT12=
EXTT13=
PLAYORDER=
